<svg width="80" height="68" viewBox="0 0 80 68" fill="none" xmlns="http://www.w3.org/2000/svg">
<path fill-rule="evenodd" clip-rule="evenodd" d="M74.1812 0.00060179H5.90063C2.61305 0.00060179 0 2.69841 0 5.90124V61.3686C0 64.6562 2.61305 67.2693 5.90063 67.2693H74.0969C77.3844 67.2693 79.9975 64.6562 79.9975 61.3686L79.9981 5.90124C80.0822 2.61366 77.3844 0 74.1814 0L74.1812 0.00060179ZM25.2889 6.06998C26.7219 6.06998 27.818 7.25011 27.818 8.59904C27.818 10.032 26.6379 11.1281 25.2889 11.1281C23.856 11.1281 22.7599 9.94797 22.7599 8.59904C22.7599 7.16607 23.8559 6.06998 25.2889 6.06998ZM17.5336 6.06998C18.9666 6.06998 20.0627 7.25011 20.0627 8.59904C20.0627 10.032 18.8825 11.1281 17.5336 11.1281C16.1006 11.1281 15.0046 9.94797 15.0046 8.59904C15.0046 7.16607 16.1847 6.06998 17.5336 6.06998ZM9.7783 6.06998C11.2113 6.06998 12.3074 7.25011 12.3074 8.59904C12.3074 10.032 11.1272 11.1281 9.7783 11.1281C8.34532 11.1281 7.24924 9.94797 7.24924 8.59904C7.24924 7.16607 8.42936 6.06998 9.7783 6.06998ZM72.6638 59.4299C72.6638 59.6828 72.495 59.8515 72.2422 59.8515H7.83934C7.5865 59.8515 7.41774 59.6828 7.41774 59.4299V17.2815H72.5793L72.5799 59.4299H72.6638ZM31.7797 34.647H36.1633V43.5823C36.1633 44.1727 36.669 44.6784 37.2593 44.6784H42.6543C43.2447 44.6784 43.7504 44.1727 43.7504 43.5823L43.7498 34.647H48.1334C49.0607 34.647 49.5664 33.551 49.0607 32.7925L40.7997 22.0866C40.3781 21.4962 39.4508 21.4962 39.0292 22.0866L30.7682 32.7925C30.3466 33.5516 30.8523 34.647 31.7796 34.647H31.7797ZM52.1796 55.4681H27.8178C26.8905 55.4681 26.2161 54.7096 26.132 53.7817V50.4102C26.132 49.4829 26.8905 48.7244 27.8178 48.7244L52.1796 48.725C53.1068 48.725 53.8654 49.4834 53.8654 50.4107V53.7823C53.8654 54.7096 53.1069 55.4681 52.1796 55.4681Z" fill="url(#paint0_linear_266_1804)"/>
<defs>
<linearGradient id="paint0_linear_266_1804" x1="32.0572" y1="21.1755" x2="19.1478" y2="57.1066" gradientUnits="userSpaceOnUse">
<stop stop-color="#B4B0FA"/>
<stop offset="1" stop-color="#273779"/>
</linearGradient>
</defs>
</svg>
