<svg width="77" height="80" viewBox="0 0 77 80" fill="none" xmlns="http://www.w3.org/2000/svg">
<path d="M74.1818 0.00136812H19.7181C20.7322 0.000759415 21.5571 0.818908 21.5644 1.83309V4.1225C21.5571 5.13666 20.7323 5.95484 19.7181 5.95484C18.7039 5.95484 17.8796 5.13669 17.8717 4.1225V1.83309C17.879 0.818924 18.7038 0.000744766 19.7181 0.00136812H2.17852C1.16375 0.000759415 0.339478 0.818908 0.332153 1.83309V40.2923C0.339458 41.3071 1.1643 42.1253 2.17852 42.124H4.97565L17.8719 36.3823V35.2835H17.8712C17.8792 34.368 18.5561 33.5961 19.4631 33.4694C20.3701 33.3434 21.2327 33.901 21.4903 34.7801L62.2559 16.639C62.7039 16.4442 63.2104 16.4308 63.6681 16.6025C64.1253 16.7747 64.4966 17.1199 64.7018 17.5637L75.521 41.5455C75.8497 41.2114 76.0323 40.7603 76.0287 40.2909V1.83172C76.022 0.817557 75.1971 -0.00124528 74.1823 1.42177e-06L74.1818 0.00136812ZM21.5647 30.8339C21.5574 31.8486 20.7332 32.6668 19.7184 32.6668C18.7042 32.6668 17.88 31.8487 17.872 30.8339V26.3833C17.8799 25.3691 18.7041 24.551 19.7184 24.551C20.7331 24.551 21.5574 25.3691 21.5647 26.3833V30.8339ZM21.5647 21.9329V21.9335C21.5574 22.9477 20.7332 23.7658 19.7184 23.7658C18.7042 23.7658 17.88 22.9477 17.872 21.9335V17.4739C17.8799 16.4597 18.7041 15.6409 19.7184 15.6409C20.7331 15.6409 21.5574 16.4597 21.5647 17.4739V21.9329ZM21.5647 13.0227V13.0233C21.5574 14.0375 20.7332 14.8563 19.7184 14.8563C18.7042 14.8563 17.88 14.0375 17.872 13.0233V8.57274C17.8799 7.55858 18.7041 6.7404 19.7184 6.7404C20.7331 6.7404 21.5574 7.55855 21.5647 8.57274V13.0227ZM44.6428 18.3157L28.0273 18.3163C27.5391 18.32 27.0692 18.1289 26.7228 17.7855C26.3758 17.4416 26.1804 16.9735 26.1804 16.4846C26.1804 15.9964 26.3758 15.5283 26.7228 15.1844C27.0692 14.8404 27.5391 14.6493 28.0273 14.6535H44.6428C45.131 14.6493 45.6009 14.8404 45.9479 15.1844C46.2943 15.5283 46.4897 15.9964 46.4897 16.4846C46.4897 16.9735 46.2943 17.4416 45.9479 17.7855C45.6009 18.1289 45.131 18.32 44.6428 18.3163V18.3157ZM58.4897 10.9901L28.0266 10.9907C27.5383 10.9944 27.0684 10.8032 26.722 10.4593C26.375 10.1154 26.1796 9.64723 26.1796 9.15901C26.1796 8.67078 26.375 8.20267 26.722 7.85873C27.0684 7.51479 27.5383 7.32364 28.0266 7.32791H58.4897C58.9779 7.32365 59.4479 7.51479 59.7943 7.85873C60.1412 8.20266 60.336 8.67078 60.336 9.15901C60.336 9.64723 60.1412 10.1153 59.7943 10.4593C59.4479 10.8032 58.9779 10.9944 58.4897 10.9907V10.9901ZM71.238 41.0434V41.044C71.2496 41.0733 71.2654 41.1013 71.2843 41.1262L62.0807 20.7333L71.238 41.0434Z" fill="url(#paint0_linear_266_1785)"/>
<path d="M20.4614 39.2471L20.4194 39.2659C20.4334 39.2598 20.4468 39.2532 20.4614 39.2471Z" fill="url(#paint1_linear_266_1785)"/>
<path d="M26.9785 72.8288C27.7529 72.4769 28.6672 72.6973 29.1961 73.3633L76.3604 52.3813L71.2835 41.1268L62.0799 20.7339L20.5024 39.2318L20.4196 39.2684L14.6524 41.8305L15.938 44.6058H15.9374C16.1413 45.0477 16.1602 45.553 15.9904 46.0096C15.8199 46.4655 15.4742 46.8344 15.0304 47.0347C14.1057 47.4571 13.0131 47.056 12.582 46.135L11.283 43.3299L0 48.3525L14.2805 80.0001L25.938 74.8136C25.79 73.9918 26.2186 73.1748 26.9789 72.8298L26.9785 72.8288ZM28.742 52.0541C27.8046 52.4473 26.7253 52.0108 26.324 51.077C26.1347 50.6284 26.1323 50.1225 26.3173 49.6721C26.5024 49.2222 26.8591 48.8643 27.3096 48.6786L44.8491 41.353V41.3524C45.7866 40.9585 46.8664 41.395 47.2671 42.33C47.4564 42.7786 47.4589 43.2839 47.2738 43.7344C47.0887 44.1848 46.7314 44.5428 46.2816 44.7284L28.742 52.0541ZM63.2881 50.5194C64.2201 50.114 65.3048 50.5352 65.7195 51.4636C65.9155 51.9092 65.9247 52.415 65.7463 52.8679C65.5673 53.3208 65.2155 53.6837 64.7681 53.876L35.229 66.6955C34.297 67.101 33.2117 66.6803 32.7972 65.752C32.6017 65.3058 32.592 64.8005 32.771 64.3476C32.9493 63.8947 33.3018 63.5319 33.7486 63.3395L63.2881 50.5194ZM24.5172 42.2782L54.0563 29.4581C54.9889 29.0527 56.0736 29.4733 56.4881 30.4023C56.6836 30.8479 56.6933 31.3531 56.5143 31.806C56.336 32.2589 55.9841 32.6217 55.5367 32.8141L25.9976 45.6342C25.065 46.0397 23.9803 45.6184 23.5658 44.6907C23.3704 44.2445 23.3606 43.7392 23.539 43.2863C23.718 42.8334 24.0698 42.4706 24.5172 42.2782ZM16.4374 54.4549L14.5101 50.2942V50.2948C14.3056 49.8529 14.2867 49.3476 14.4572 48.8917C14.6276 48.4351 14.9728 48.0662 15.4165 47.866C16.3412 47.4429 17.4345 47.8441 17.8649 48.7657L19.7921 52.9264L19.7928 52.9258C19.9967 53.3683 20.0156 53.8736 19.8451 54.3295C19.6747 54.7855 19.3295 55.1544 18.8857 55.3547C17.9611 55.7777 16.8684 55.376 16.4374 54.4549H16.4374ZM20.2912 62.7753L18.3646 58.6146L18.364 58.6152C18.1601 58.1732 18.1412 57.668 18.3117 57.212C18.4815 56.7561 18.8273 56.3866 19.271 56.1869C20.1957 55.7638 21.2883 56.165 21.7194 57.086L23.646 61.2467C23.8505 61.6887 23.8694 62.1939 23.699 62.6499C23.5285 63.1064 23.1834 63.4753 22.7396 63.6756C21.8149 64.0981 20.7223 63.6969 20.2912 62.7759V62.7753ZM24.1451 71.0962L22.2185 66.9355L22.2179 66.9367C22.0139 66.4942 21.9951 65.9889 22.1649 65.533C22.3354 65.077 22.6811 64.7081 23.1249 64.5079C24.0496 64.0848 25.1422 64.4866 25.5733 65.4076L27.4999 69.5683V69.5677C27.7038 70.0096 27.7233 70.5149 27.5529 70.9714C27.3824 71.4274 27.0373 71.7963 26.5935 71.9966C25.6682 72.419 24.5762 72.0179 24.1445 71.0968L24.1451 71.0962Z" fill="url(#paint2_linear_266_1785)"/>
<defs>
<linearGradient id="paint0_linear_266_1785" x1="30.6649" y1="13.2601" x2="24.9476" y2="37.3051" gradientUnits="userSpaceOnUse">
<stop stop-color="#B4B0FA"/>
<stop offset="1" stop-color="#273779"/>
</linearGradient>
<linearGradient id="paint1_linear_266_1785" x1="20.4362" y1="39.253" x2="20.4341" y2="39.264" gradientUnits="userSpaceOnUse">
<stop stop-color="#B4B0FA"/>
<stop offset="1" stop-color="#273779"/>
</linearGradient>
<linearGradient id="paint2_linear_266_1785" x1="30.5988" y1="39.3901" x2="19.92" y2="71.5914" gradientUnits="userSpaceOnUse">
<stop stop-color="#B4B0FA"/>
<stop offset="1" stop-color="#273779"/>
</linearGradient>
</defs>
</svg>
