<svg width="80" height="80" viewBox="0 0 80 80" fill="none" xmlns="http://www.w3.org/2000/svg">
<path fill-rule="evenodd" clip-rule="evenodd" d="M55.7392 12.5659C55.4939 12.5659 55.2616 12.5011 55.0424 12.3591C54.4358 11.9718 54.2552 11.1722 54.655 10.5912L61.0168 0.603945C61.4041 -0.00258964 62.2043 -0.183183 62.7978 0.204146C63.4043 0.591474 63.5849 1.3786 63.1976 1.98514L56.8234 11.9724C56.578 12.3591 56.1652 12.5659 55.7392 12.5659ZM63.6627 20.8489C63.2112 20.8489 62.7852 20.6166 62.5399 20.2037C62.1912 19.5847 62.3979 18.7976 63.0175 18.4358L73.2757 12.5131C73.8953 12.165 74.6954 12.3711 75.0436 12.9907C75.3917 13.6103 75.1855 14.3975 74.5659 14.7586L64.3078 20.6813C64.1017 20.7972 63.8819 20.8489 63.6627 20.8489ZM14.1119 34.7212L25.235 53.9986L16.6931 58.9289C11.3763 62.0002 4.56364 60.1806 1.49242 54.8513C-1.57895 49.5345 0.240665 42.7219 5.56995 39.6507L14.1119 34.7212ZM78.6572 28.7598L66.8247 29.276C66.1148 29.3015 65.56 29.9081 65.5861 30.618C65.6116 31.3148 66.1926 31.8566 66.8764 31.8566H66.9281L78.7605 31.3403C79.4704 31.3148 80.0253 30.7083 79.9991 29.9984C79.973 29.2885 79.354 28.7598 78.6572 28.7598ZM24.7971 57.2378L17.9838 61.1734C17.0678 61.7027 16.1 62.1025 15.0931 62.3996C16.3193 68.4512 19.4286 73.9741 23.9707 78.1427C25.6608 79.704 28.1903 79.9623 30.1773 78.8009C30.1902 78.7945 30.2023 78.7881 30.214 78.7817C30.2257 78.7752 30.237 78.7688 30.2483 78.7623C30.2709 78.7494 30.2935 78.7365 30.3193 78.7237C33.2225 77.0461 33.8807 73.1105 31.6357 70.6333C28.2426 66.8522 25.8811 62.2322 24.7969 57.2385L24.7971 57.2378ZM30.5908 3.75342C30.7453 11.844 38.7198 26.412 41.7264 31.6248L41.7259 31.6262C42.9912 33.807 52.8236 50.568 60.2689 55.2272C57.1246 55.6358 53.2807 54.8341 49.4375 54.0327C48.0607 53.7456 46.684 53.4585 45.3396 53.2271C38.6426 51.7692 32.7068 51.6528 27.7001 53.1368L16.1 33.032C19.8936 29.4322 22.7581 24.2449 24.8486 17.7025C25.3236 16.414 25.7652 15.0693 26.2066 13.7252C27.4317 9.99434 28.6556 6.26709 30.5908 3.75342ZM33.9583 1.0037C31.6741 2.32012 34.0355 10.8751 39.3006 21.6103C43.7655 20.0491 48.8364 21.8295 51.2494 26.0361C53.6755 30.2295 52.6948 35.5202 49.0948 38.604C55.7916 48.6044 62.076 54.992 64.3604 53.6628C67.238 51.9983 62.7605 38.8625 54.36 24.3193C45.9595 9.7774 36.8361 -0.662625 33.9587 1.00263L33.9583 1.0037ZM49.0302 27.3275C50.7588 30.3209 50.1523 34.076 47.7138 36.3987L47.7138 36.3988C46.4365 34.4247 45.1718 32.3604 43.9593 30.2562C42.7463 28.1533 41.5979 26.0373 40.5138 23.9337C43.7395 22.979 47.3009 24.3209 49.0302 27.3275Z" fill="url(#paint0_linear_266_1829)"/>
<defs>
<linearGradient id="paint0_linear_266_1829" x1="32.0572" y1="25.0324" x2="14.801" y2="65.6618" gradientUnits="userSpaceOnUse">
<stop stop-color="#B4B0FA"/>
<stop offset="1" stop-color="#273779"/>
</linearGradient>
</defs>
</svg>
