<svg width="80" height="60" viewBox="0 0 80 60" fill="none" xmlns="http://www.w3.org/2000/svg">
<path d="M69.1801 44.473L59.9998 42.1767L59.6299 40.7001C65.9167 39.5768 69.1802 37.68 69.3263 37.5901C69.7962 37.3133 70.0897 36.8133 70.1299 36.2704C70.1701 35.7235 69.9268 35.1872 69.5032 34.8435C69.4597 34.81 65.2198 31.2334 65.2198 18.9134C65.2198 7.99985 62.5863 2.46342 57.3933 2.46342H56.8364C55.0496 0.779844 53.5897 0.0565582 50.3598 0.0102724C49.7834 0.0270139 49.1829 0.353458 48.89 0.893644C48.5931 1.43382 48.6299 2.11016 48.9664 2.62693C51.6763 6.76694 51.6534 11.0639 48.8967 14.4138C48.3833 15.0371 48.3933 15.9407 48.9134 16.5538C50.2633 18.1402 50.89 20.2341 50.63 22.3038L50.0134 27.2341C49.7768 29.1308 48.8264 30.8474 47.3432 32.0705C47.0798 32.2871 46.8901 32.5772 46.7963 32.9037C46.3231 34.5873 45.6362 36.214 44.7528 37.7401C44.4894 38.1932 44.4592 38.7435 44.6629 39.2234C44.8694 39.7067 45.2863 40.0632 45.793 40.1899L49.9894 41.2368C57.8465 43.2028 63.3331 50.2329 63.3331 58.3325C63.3331 59.2527 64.0798 59.9994 65 59.9994H78.3331C79.2533 59.9994 80 59.246 80 58.3258C80 51.7628 75.5534 46.0628 69.1801 44.473ZM49.1801 44.473L39.9965 42.1794L39.3163 39.4563C41.7499 36.9697 43.4296 33.6365 43.9899 30.1962C45.4234 29.6862 46.5066 28.3994 46.703 26.8162L47.3196 21.8894C47.4631 20.7225 47.1065 19.5495 46.3364 18.6662C45.9564 18.2326 45.4932 17.8861 44.9798 17.6428L45.1863 13.4759L45.9965 12.6629C47.4933 11.073 48.7365 8.35601 46.1768 4.44972C44.2432 1.49657 40.9832 0 36.4798 0C34.7432 0 30.7599 7.15256e-07 27.0066 2.47315C16.1869 2.74323 14.7835 8.09644 14.7835 12.7533C14.7835 13.8102 15.0167 16.0334 15.1936 17.5636C14.62 17.8002 14.1032 18.1668 13.6836 18.6434C12.9001 19.5335 12.5335 20.7165 12.6803 21.8901L13.2969 26.817C13.5067 28.5067 14.7305 29.8571 16.3069 30.2901C16.8638 33.587 18.457 36.8001 20.7405 39.2333L20.0039 42.1797L10.8203 44.4733C4.44643 46.0631 0 51.7634 0 58.3333C0 59.2535 0.746658 60.0002 1.66686 60.0002H58.3341C59.2543 60.0002 60.0009 59.2468 60.0009 58.3266C60.0004 51.7636 55.5534 46.0628 49.1801 44.473Z" fill="url(#paint0_linear_266_1796)"/>
<defs>
<linearGradient id="paint0_linear_266_1796" x1="32.0572" y1="18.8873" x2="21.5412" y2="51.7027" gradientUnits="userSpaceOnUse">
<stop stop-color="#B4B0FA"/>
<stop offset="1" stop-color="#273779"/>
</linearGradient>
</defs>
</svg>
