<svg width="84" height="96" viewBox="0 0 84 96" fill="none" xmlns="http://www.w3.org/2000/svg">
<path d="M21.2402 95.7515C20.1185 93.2923 28.9812 94.082 31.6085 93.9254C35.119 93.7156 37.3114 90.7596 37.3114 87.414C37.3114 85.1624 36.3852 83.2741 34.7045 82.0976C34.7045 82.0976 33.9941 81.5679 33.9836 81.2082C33.9732 80.8485 34.652 80.3765 34.652 80.3765C36.4459 78.9498 37.4755 76.8404 37.4755 74.5888C37.4755 72.5079 36.5666 70.5027 34.9825 69.0865C34.9825 69.0865 34.4281 68.5815 34.4543 68.2338C34.4798 67.8861 35.1077 67.3886 35.1077 67.3886C36.8798 66.2234 38.1799 64.1366 38.3364 61.7943C38.7396 55.7967 34.823 56.0659 33.3671 54.4421C33.134 54.1836 33.9448 53.5646 34.1943 53.3203C35.9874 51.5662 36.4766 47.8503 36.4766 47.8503L37.2349 51.635C40.6638 65.9101 48.1232 66.846 48.2699 66.5784C48.446 66.2629 48.3538 65.8471 48.0691 65.6687C36.6639 58.5293 38.2008 40.6492 38.1946 40.5783C37.7555 34.6392 37.0819 25.7037 36.971 24.6217C36.666 23.7614 35.0146 18.7584 35.9594 13.9409C36.7799 9.74922 39.3282 4.71849e-06 45.2471 4.71849e-06C45.9432 4.71849e-06 47.4044 -0.00748838 47.8293 0.574726C47.9364 0.720841 48.0548 1.4162 48.0548 1.4162C48.069 3.34191 47.9529 8.15993 47.7723 13.1293C47.7693 13.2057 47.7791 13.2822 47.7993 13.3571C49.8253 20.5886 52.8406 29.8044 54.6675 31.9624C55.7608 33.255 68.2728 44.3051 69.2094 44.9929C71.2385 46.221 73.7944 46.2705 76.0491 46.314C78.0228 46.3537 79.8848 46.3904 81.0282 47.2116C82.6033 48.3438 83.0663 49.7489 83.1713 50.1527L83.2057 50.4209V82.1523C83.2057 82.1665 83.181 84.1559 82.3912 84.8693C81.7176 85.3728 80.043 85.7347 78.9423 85.767C73.7579 85.9228 65.896 89.572 65.7792 89.6161C48.3166 96.2138 21.5371 96.4018 21.2398 95.7521L21.2402 95.7515ZM30.0288 92.788H14.569C10.7985 92.788 8.36256 90.678 8.36256 87.4125C8.36256 84.4986 11.2046 82.0371 14.569 82.0371H30.0288C33.7993 82.0371 36.2368 84.1471 36.2368 87.4125C36.2368 91.1059 33.0185 92.788 30.0288 92.788ZM29.8872 80.7653H9.68628C5.91274 80.7653 3.17484 78.2499 3.17484 74.7827C3.17484 71.8964 6.07924 68.4105 9.68628 68.4105H29.8872C33.4171 68.4105 36.3986 71.2392 36.3986 74.5871C36.3994 77.9935 33.4785 80.7651 29.8872 80.7651V80.7653ZM31.4772 67.1384H6.51143C3.26924 67.1384 0 65.4142 0 61.5636C0 58.3851 2.80157 55.9873 6.51757 55.9873C6.51083 55.9873 27.739 55.9012 33.4515 55.9843C35.7188 56.0158 36.905 58.8782 36.905 61.6918C36.9043 64.3152 35.2056 67.1386 31.4763 67.1386L31.4772 67.1384ZM9.46551 54.7052H9.46101C5.8298 54.7029 2.07506 52.4461 2.07506 48.6725C2.07506 45.2481 4.8093 42.7621 8.57748 42.7621C8.58497 42.7621 20.7523 42.843 29.398 42.843L29.6407 42.8408L29.6857 42.843C32.6979 42.855 34.5682 45.1224 34.5682 48.7686C34.5682 51.6924 32.7788 54.6432 28.7843 54.6777L28.7056 54.6822C27.267 54.6792 12.9192 54.6935 9.46578 54.7054L9.46551 54.7052Z" fill="url(#paint0_linear_1448_2)"/>
<defs>
<linearGradient id="paint0_linear_1448_2" x1="33.3418" y1="30.2196" x2="10.3803" y2="76.7964" gradientUnits="userSpaceOnUse">
<stop stop-color="#B4B0FA"/>
<stop offset="1" stop-color="#273779"/>
</linearGradient>
</defs>
</svg>
